<svg xmlns="http://www.w3.org/2000/svg" viewBox="0 0 120 120" enable-background="new 0 0 120 120"><g fill="#fff"><path d="m74.04 88.18c-4.831 4.382-9.313 7.03-12.418 8.851-.634.372-1.211.711-1.724 1.026-.515-.315-1.089-.654-1.725-1.026-3.02-1.777-7.371-4.34-12.06-8.53-.81-.147-1.605-.31-2.389-.488 6.835 6.54 13.165 9.583 16.18 11.539 3.072-1.996 9.595-5.128 16.586-11.94-.804.205-1.62.395-2.443.568"/><path d="m30.379 65.6l.607.189c.098.031.205.064.304.096-.457-1.714-.643-2.879-.628-3.641.153-.084.311-.17.446-.24 2.763-1.473 6.116-3.933 7.525-9.928 1.703-7.24-2.024-12.359-3.734-14.248 1.104-1.622 3.261-4.319 8.02-4.927 7.989-1.025 14.286-3.144 16.982-4.318 2.697 1.174 8.995 3.292 16.98 4.318 4.759.608 6.916 3.305 8.02 4.927-1.712 1.889-5.438 7.01-3.735 14.248 1.409 5.995 4.762 8.455 7.537 9.933.129.069.283.152.433.235.017.707-.144 1.744-.535 3.289.476-.141.935-.254 1.387-.348.406-1.82.498-3.02.328-3.717-.242-.162-.688-.398-1.029-.581-2.237-1.193-5.521-3.282-6.89-9.101-1.982-8.433 4.13-13.808 4.13-13.808-.945-1.342-3.138-5.52-9.485-6.333-7.937-1.018-14.52-3.205-17.14-4.45-2.622 1.246-9.205 3.433-17.14 4.45-6.349.813-8.541 4.991-9.484 6.333 0 0 6.11 5.375 4.128 13.808-1.369 5.819-4.654 7.908-6.891 9.101-.343.183-.786.419-1.029.581-.176.725-.064 2.037.394 3.99.169.047.332.087.502.142"/><path d="m79.5 86.76c-.175.057-.354.101-.527.156-6.195 6.493-12.185 10.02-16.06 12.301-.903.53-1.684.989-2.316 1.399l-.689.448-.69-.448c-.63-.41-1.413-.869-2.315-1.399-3.782-2.224-9.562-5.635-15.585-11.81-.67-.186-1.335-.38-1.998-.59-.995-.317-1.938-.655-2.867-1 7.304 8.592 14.629 12.911 19.17 15.581.864.507 1.615.945 2.22 1.339l2.067 1.345 2.066-1.345c.605-.394 1.355-.832 2.221-1.339 4.649-2.735 12.224-7.188 19.704-16.208-1.421.552-2.857 1.08-4.394 1.57"/><path d="m26.359 64.92c.675 0 1.394.078 2.144.216-.385-1.856-.449-3.135-.246-3.964l.117-.478.408-.272c.262-.177.744-.438 1.121-.639 1.613-.859 4.939-2.632 6.268-8.282 1.779-7.56-3.509-12.37-3.736-12.572l-.843-.75.647-.924c.079-.113.167-.245.267-.395 1.118-1.692 3.738-5.651 10.09-6.465 8.268-1.058 14.578-3.3 16.759-4.337l.543-.259.543.259c2.182 1.037 8.492 3.279 16.76 4.337 6.352.814 8.972 4.773 10.09 6.465.1.15.189.282.268.395l.651.928-.851.748c-.226.2-5.512 5.01-3.733 12.569 1.328 5.65 4.655 7.423 6.254 8.274.392.208.872.47 1.137.647l.407.272.118.478c.196.806.137 2.027-.218 3.808.362-.036.719-.06 1.061-.06.546 0 1.034.052 1.485.131.353-1.969.389-3.416.126-4.483l-.352-1.429-1.224-.819c-.314-.21-.885-.526-1.352-.774-1.893-1.01-3.999-2.439-4.983-6.623-1.412-6.02 2.791-9.949 2.943-10.09l2.557-2.248-1.961-2.784-.223-.335c-1.2-1.81-4.38-6.617-11.88-7.577-7.375-.947-13.606-2.979-15.995-4.116l-1.627-.772-1.629.773c-2.389 1.137-8.621 3.169-15.994 4.116-7.502.959-10.683 5.767-11.88 7.577l-2.119 3.092 2.464 2.251c.181.166 4.383 4.092 2.968 10.115-.984 4.184-3.087 5.612-4.998 6.63-.449.24-1.021.557-1.337.767l-1.222.819-.354 1.429c-.257 1.049-.224 2.458.108 4.374.151-.006.293-.022.452-.022"/><path d="m20.71 73.835c-3.455-1.331-8.32-2.522-10.896-2.679 2.886 3.59 4.223 7.659 4.282 7.843l.064.193-.095.182c-.05.1-1.2 2.348-4.523 6.98.022 0 .049 0 .075 0 2.146 0 4.55.529 6.95 1.531 9.568 3.988 15.721 6.223 18.292 6.64 1.07.174 2.108.263 3.083.263 1.943 0 3.518-.362 4.54-1.019-1.5-1.32-3.034-2.802-4.582-4.458-.403-.021-.813-.034-1.23-.034-1.952 0-3.947.207-5.931.62-3.95.816-6.751.479-8.322-.987-.854-.799-1.638-1.912-1.703-3.28l-.004-11.795"/><path d="m99.39 73.809c3.455-1.332 8.32-2.67 10.898-2.823-2.888 3.59-4.225 7.658-4.282 7.844l-.063.191.092.183c.05.097 1.199 2.349 4.523 6.979-.021 0-.047 0-.073 0-2.148 0-4.553.53-6.95 1.53-9.569 3.99-15.721 6.225-18.291 6.643-1.071.173-2.108.26-3.085.26-1.942 0-3.519-.36-4.539-1.019 1.498-1.321 3.03-2.802 4.581-4.456.404-.021.812-.034 1.231-.034 1.95 0 3.946.208 5.931.617 3.949.819 6.75.48 8.32-.987.855-.798 1.641-1.909 1.706-3.278v-11.65"/><path d="m35.08 85.17c-1.047-.414-2.09-.839-3.153-1.276-.844-.349-1.697-.701-2.573-1.052-1.347-.539-2.56-.813-3.606-.813-2.781 0-3.834 1.961-3.963 2.708-.217 1.254.344 2.258 1.058 2.927 1.263 1.179 3.743 1.415 7.24.695 2.067-.43 4.149-.646 6.187-.646.343 0 .682.011 1.016.023-.736-.814-1.47-1.665-2.206-2.566"/><path d="m84.85 85.17c1.048-.414 2.09-.839 3.153-1.276.843-.349 1.696-.701 2.572-1.052 1.348-.539 2.561-.813 3.605-.813 2.782 0 3.833 1.961 3.964 2.708.216 1.254-.344 2.258-1.058 2.927-1.263 1.179-3.744 1.415-7.238.695-2.069-.43-4.151-.646-6.188-.646-.344 0-.68.011-1.016.023.735-.814 1.47-1.665 2.206-2.566"/><path d="m79.15 67.35c-.285-.169-.578-.393-.876-.665-.302-.279-.602-.588-.9-.936-.304-.346-.683-.781-1.124-1.314-.172-.196-.314-.355-.425-.48-.112-.123-.204-.227-.278-.309l-1.363-1.613c-.929-1.16-1.717-2.056-2.348-2.694.849-.138 1.588-.368 2.229-.694.636-.328 1.183-.724 1.64-1.18.446-.461.793-.977 1.032-1.54.241-.565.358-1.151.358-1.747 0-.914-.262-1.759-.777-2.548-.525-.787-1.295-1.415-2.323-1.889-1.025-.474-2.226-.711-3.598-.711h-10.888l.026 1.024c.951.023 1.417-.063 1.841.085.431.149.908.313 1.048.673.135.359.204.904.204 1.642v12.89c0 .688-.08 1.201-.236 1.52-.165.318-.465.547-.893.67-.438.125-1.1.195-1.99.213v.761h9.567v-.761c-.193.012-.483-.012-.874-.055-.385-.047-.713-.107-.977-.178-.498-.146-.82-.388-.973-.72-.14-.331-.216-.789-.216-1.369v-5.848h1.531c.32 0 .706.226 1.143.667.438.448 1.099 1.249 1.992 2.407l1.934 2.459c.618.783 1.164 1.416 1.648 1.895.481.477.988.85 1.512 1.107.521.262 1.081.396 1.665.396h2.602v-.761c-.322-.09-.628-.222-.913-.397m-15.223-1c0 .904-.604 1.371-1.81 1.396.636-.324.953-.918.953-1.777v-13.626c0-.801-.062-1.377-.188-1.718-.122-.348-.425-.626-.9-.835.577-.031 1.01.045 1.29.219.279.172.459.445.539.81.078.362.116.896.116 1.604v13.927m9.882-15.12c.59.747.885 1.762.885 3.03 0 1.304-.333 2.345-1 3.111-.658.761-1.604 1.222-2.839 1.378.978-.382 1.707-.885 2.19-1.508.48-.62.721-1.562.721-2.816 0-1.187-.205-2.138-.614-2.847-.409-.718-1.025-1.285-1.855-1.708 1.089.159 1.925.612 2.512 1.36m-7.772 7.589v-6.231c0-.726.06-1.281.171-1.661.115-.383.354-.666.722-.853.365-.19.896-.284 1.605-.284.698 0 1.274.045 1.729.139.451.091.881.278 1.294.559 1.17.813 1.758 2.081 1.758 3.798 0 1.455-.386 2.539-1.139 3.244-.37.369-.928.676-1.667.918-.736.248-1.483.371-2.236.371h-2.237m10.379 9.08c-.402-.117-.869-.385-1.394-.803-.526-.42-1.089-1.019-1.706-1.801-.675-.875-1.346-1.736-2-2.581-.664-.85-1.215-1.519-1.653-2.02-.433-.494-.815-.87-1.151-1.114h1.134c.24.146.426.298.563.463.127.157.241.306.335.434.678.727 1.339 1.497 1.979 2.315.638.824 1.259 1.596 1.859 2.34.609.74 1.169 1.354 1.689 1.837.529.484 1.075.865 1.649 1.141-.46-.021-.893-.089-1.299-.212"/><path d="m53.56 40.854c.857.068 1.473.155 1.853.265.376.11.642.318.797.627.161.309.236.804.236 1.487v5.797h-9.817v-5.058c0-.889.05-1.539.155-1.944.101-.407.353-.697.747-.885.394-.187 1.046-.279 1.96-.29v-.757h-9.222v.757c1.123.05 1.89.208 2.3.478.407.271.613.849.613 1.732v12.948c0 .63-.043 1.113-.12 1.463-.078.349-.215.621-.425.812-.208.194-.486.328-.843.396-.357.068-.861.112-1.525.133v.756h9.222v-.756c-.74-.064-1.28-.143-1.637-.235-.354-.092-.625-.243-.799-.452-.184-.205-.295-.483-.347-.827-.051-.342-.079-.858-.079-1.537v-5.717h9.817v6.02c0 .813-.063 1.392-.187 1.742-.126.35-.373.59-.752.729-.378.139-1.025.234-1.947.28v.756h9.219v-.756c-.894.021-1.54-.064-1.935-.247-.406-.176-.659-.461-.776-.85-.12-.382-.173-.952-.173-1.708v-12.04c0-.943.061-1.623.181-2.03.124-.4.366-.678.753-.824.377-.148 1.029-.236 1.949-.265v-.757h-9.219v.756zm-9.04 15.434c0 .85-.105 1.477-.324 1.897-.212.424-.589.631-1.124.631h-.396c.274-.185.503-.44.686-.765.184-.331.279-.889.279-1.693v-13.183c0-.729-.073-1.25-.223-1.567-.142-.317-.394-.566-.742-.753.582-.034 1.01.046 1.267.235.256.197.418.498.483.89.063.403.094 1.043.094 1.928v12.38m11.787-15.434c.648 0 1.051.204 1.22.609.16.405.247 1.032.247 1.88v13.69c0 .616-.109 1.073-.332 1.352-.219.288-.579.431-1.074.431h-.458c.352-.214.603-.457.759-.727.155-.273.234-.747.234-1.428v-13.679c0-.613-.068-1.082-.204-1.394-.142-.311-.402-.555-.789-.734h.397"/><path d="m61.83 82.11c-.003-.186.046-.361.148-.526.1-.166.252-.351.451-.56-.309.179-.552.357-.722.533-.171.181-.257.392-.252.634.004.221.109.402.325.544.215.142.447.211.695.203.243-.005.43-.031.556-.08-.358.012-.648-.049-.87-.175-.215-.129-.326-.32-.331-.573"/><path d="m61.958 79.17c-.004-.111.029-.213.092-.305.063-.089.17-.216.327-.387-.265.139-.47.271-.611.402-.142.133-.213.283-.21.441.001.073.039.141.12.201.082.063.175.095.282.092.183-.004.328-.058.433-.161-.137.012-.243-.011-.316-.071-.075-.057-.117-.129-.117-.212"/><path d="m35.986 78.22c-.24.155-.398.376-.47.666-.046.188-.025.354.064.487.089.135.211.22.366.257.243.058.521.008.827-.16.134-.563.265-1.126.396-1.689-.542.138-.936.283-1.183.439"/><path d="m62.968 81.08c-.194.214-.283.47-.275.767.005.196.068.349.188.454.122.106.263.154.417.149.254-.008.503-.131.753-.375-.023-.578-.049-1.155-.071-1.733-.485.28-.825.524-1.012.738"/><path d="m67.49 78.79c-.145-.117-.305-.171-.484-.156-.021.001-.052.008-.103.02-.049.011-.084.015-.095.016.354.125.539.351.567.692.062.825.124 1.651.185 2.476.014.161.011.281-.009.354-.019.075-.069.156-.149.248.382-.061.559-.273.53-.632-.068-.858-.137-1.716-.204-2.574-.014-.18-.092-.329-.238-.444"/><path d="m64.807 82.56c-.107-.135-.165-.351-.178-.65-.038-.827-.078-1.654-.116-2.481-.017-.375-.088-.632-.203-.77-.119-.135-.316-.214-.592-.23.153.066.254.165.31.302.057.134.092.391.108.77.03.711.06 1.423.091 2.134.018.423.079.734.187.938.11.202.31.298.599.283.13-.006.232-.024.312-.06-.241-.021-.416-.101-.518-.236"/><path d="m58.31 81.67c-.252-.294-.511-.605-.772-.934-.26-.325-.527-.638-.806-.933-.037-.05-.082-.107-.133-.173-.056-.065-.132-.127-.229-.188-.156-.007-.313-.012-.47-.02.134.1.29.256.463.455.176.202.398.472.666.814.271.337.546.683.827 1.03.255.313.492.551.718.719.222.167.421.273.592.323.176.049.362.075.561.083-.25-.107-.479-.26-.706-.45-.222-.19-.458-.432-.711-.726"/><path d="m34.612 78.903c.046-.18.141-.334.282-.467.143-.134.34-.273.592-.418-.356.087-.634.193-.85.32-.212.126-.352.307-.412.54-.055.214 0 .416.169.614.169.194.378.323.624.385.236.059.422.081.559.072-.351-.087-.616-.223-.795-.404-.175-.184-.232-.399-.169-.642"/><path d="m48.34 75.27c-.062-.008-.125-.015-.187-.023.26.155.417.301.465.447.046.146.059.334.032.563-.234 1.972-.466 3.944-.7 5.916.136-.034.239-.084.307-.142.067-.062.111-.163.126-.3.208-1.808.415-3.613.621-5.423.038-.324.014-.568-.067-.732-.083-.164-.277-.265-.597-.306"/><path d="m47.807 77.853c-.167-.104-.34-.168-.521-.192-.269-.035-.522.008-.772.133-.246.125-.458.334-.635.628-.176.292-.298.669-.365 1.137-.058.391-.051.74.03 1.042.082.306.218.55.417.728.197.18.438.287.72.324.407.054.796-.027 1.166-.246.126-1.05.252-2.099.379-3.148-.117-.168-.255-.303-.419-.406"/><path d="m45.703 81.72c-.242-.131-.449-.306-.627-.525-.18-.219-.309-.467-.386-.742-.081-.281-.094-.574-.048-.879.147-.953.781-1.633 1.868-2.068-.324.022-.604.085-.84.188-.356.142-.662.379-.915.709-.253.329-.412.697-.478 1.103-.062.392-.033.77.092 1.136.125.363.333.669.63.917.295.247.645.398 1.049.453.274.038.525.033.752-.015-.183-.009-.298-.018-.347-.024-.261-.037-.511-.12-.75-.253"/><path d="m37.43 75.864c.129.105.201.229.218.376.017.143-.013.4-.1.771-.162.694-.323 1.388-.484 2.082-.096.409-.12.728-.071.953.051.223.219.37.504.433.129.029.232.038.318.026-.229-.082-.372-.206-.437-.363-.067-.159-.066-.385 0-.678.185-.807.369-1.614.554-2.419.083-.365.085-.632.007-.797-.077-.163-.248-.29-.509-.384"/><path d="m57.897 76.35c.16.282.233.656.226 1.121-.009.492-.113.86-.316 1.098-.205.239-.512.432-.921.569.513-.047.912-.219 1.189-.512.279-.295.422-.703.429-1.214.008-.495-.106-.896-.339-1.192-.229-.298-.563-.483-.995-.558.325.176.565.405.727.688"/><path d="m40.591 76.969c-.016-.004-.059-.009-.124-.015-.068-.005-.109-.013-.132-.019.365.246.509.568.43.972-.159.805-.319 1.609-.476 2.414-.024.119-.066.206-.118.254-.055.054-.133.104-.225.154.227.027.396.003.511-.068.115-.07.193-.219.236-.442.144-.747.29-1.495.436-2.242.057-.303.043-.535-.043-.695-.084-.164-.252-.266-.495-.313"/><path d="m57.45 78.68c.317-.27.485-.69.497-1.263.012-.673-.216-1.173-.677-1.505-.163-.114-.331-.192-.512-.234-.181-.045-.411-.071-.689-.08-.285-.013-.498.016-.647.082-.15.065-.251.172-.307.32-.051.146-.087.361-.101.646-.042.813-.083 1.625-.126 2.438.308.016.62.03.928.043.314.014.624-.021.934-.108.307-.084.542-.201.7-.339"/><path d="m35.09 76.15c-.018.072.001.145.062.226.062.083.146.135.248.163.181.046.336.034.466-.04-.138-.021-.235-.073-.29-.149-.058-.078-.075-.157-.054-.237.027-.109.084-.198.167-.268.087-.07.229-.166.424-.286-.294.06-.526.135-.701.224-.174.089-.283.212-.322.367"/><path d="m27.774 70.15c-.074-.108-.226-.194-.452-.266.105.118.169.246.184.382.012.138-.027.34-.126.609-.585 1.621-1.171 3.24-1.756 4.859-.107.297-.222.49-.338.582-.12.091-.248.153-.385.18.055.021.11.041.163.061.219.078.4.057.545-.065.146-.124.271-.341.383-.654.543-1.523 1.088-3.047 1.632-4.57.118-.326.189-.567.219-.725.027-.155.003-.288-.069-.393"/><path d="m86.39 75.48c-.16-.093-.333-.112-.522-.062-.045.012-.126.043-.257.094.246.012.425.086.532.227.108.141.205.361.289.663.165.591.328 1.183.491 1.773.076.279.118.472.12.58.003.107-.039.213-.123.317.278-.08.434-.19.473-.325.034-.138.023-.316-.037-.531-.207-.735-.414-1.472-.622-2.206-.074-.259-.187-.435-.344-.53"/><path d="m82.6 75.859c.318.184.575.438.777.768.202.331.378.797.525 1.399.095.38.134.709.11.989-.024.279-.095.547-.218.803.254-.214.417-.496.496-.845.076-.351.055-.75-.059-1.204-.279-1.112-.828-1.743-1.631-1.91"/><path d="m89.57 74.16c-.218-.1-.475-.086-.784.042.286-.004.493.071.624.227.132.16.258.416.37.772.239.75.476 1.499.712 2.249.047.146.063.261.047.352-.013.088-.052.183-.134.282.284-.107.438-.233.471-.373.028-.14 0-.342-.084-.61-.242-.759-.486-1.518-.73-2.277-.111-.341-.271-.562-.492-.664"/><path d="m83.7 78.01c-.178-.731-.422-1.272-.729-1.632-.308-.358-.638-.493-1-.409-.354.081-.595.299-.725.648-.129.353-.129.836.005 1.447.164.753.414 1.315.748 1.691.336.372.698.516 1.081.427.194-.046.36-.162.488-.349.134-.185.213-.431.242-.741.032-.308-.007-.67-.108-1.082"/><path d="m98.16 70.27c.026-.755-.289-1.881-1.242-2.781-1.552-1.466-4.229-1.727-7.503-.704l-.678.211c-5.85 1.833-16.74 5.248-28.793 5.248-12.01-.043-22.84-3.442-28.657-5.269l-.608-.191c-3.271-1.021-5.951-.76-7.505.705-.953.901-1.247 2.026-1.221 2.779v12.157c.774-.851 2.185-1.629 4.156-1.629 1.205 0 2.575.305 4.069.904.879.352 1.738.705 2.584 1.055 2.528 1.042 4.917 2.026 7.604 2.883 5.768 1.842 11.805 2.669 19.577 2.685h.211c7.677-.016 13.734-.861 19.638-2.743 2.782-.887 5.261-1.897 7.884-2.969.737-.304 1.48-.608 2.239-.91 1.494-.6 2.862-.903 4.069-.903 1.883 0 3.351.854 4.175 1.745v-12.273m-64.25 2.201c-.091.139-.188.389-.29.744-.431 1.514-.861 3.03-1.292 4.539-.082.285-.118.507-.111.667.006.157.081.295.232.409.147.117.407.221.784.316-.025.096-.051.192-.077.288-1.291-.353-2.574-.728-3.852-1.131.029-.093.059-.188.088-.28.387.103.666.148.84.145.172-.004.302-.063.394-.179s.183-.327.274-.633c.226-.751.452-1.505.679-2.258-1.315-.396-2.624-.819-3.925-1.272-.246.708-.49 1.414-.737 2.12-.086.252-.14.445-.163.58-.023.133-.015.252.036.356.043.102.136.196.269.279.136.083.349.188.647.313-.031.095-.062.188-.094.282-1.272-.424-2.541-.875-3.799-1.352.034-.092.07-.183.105-.277.272.096.487.159.641.187.156.027.289.021.398-.02.113-.04.205-.118.286-.234.076-.119.158-.29.242-.523.579-1.59 1.158-3.181 1.736-4.769.117-.326.116-.567-.002-.724-.121-.158-.391-.324-.811-.503.034-.093.068-.185.104-.278 1.167.441 2.338.857 3.517 1.251-.031.094-.062.188-.094.281-.352-.114-.613-.164-.789-.146-.175.017-.31.089-.4.229-.092.134-.196.368-.31.697-.218.624-.434 1.248-.65 1.874 1.295.45 2.599.872 3.909 1.266.219-.726.437-1.452.655-2.177.078-.256.106-.45.076-.585-.023-.134-.105-.244-.235-.331-.136-.087-.365-.19-.687-.32.029-.095.059-.189.088-.283 1.184.372 2.372.719 3.565 1.043-.025.096-.051.192-.078.288-.362-.088-.625-.126-.788-.11-.167.015-.292.092-.381.231m4.196 8.197c-.183.052-.383.056-.605.006-.258-.058-.447-.155-.565-.293-.124-.137-.184-.323-.192-.553-.634.294-1.215.37-1.739.239-.372-.094-.645-.255-.818-.487-.173-.231-.222-.483-.151-.751.063-.24.181-.427.358-.563.177-.135.389-.238.635-.316.25-.074.609-.161 1.074-.26.467-.099.848-.188 1.151-.271.063-.266.125-.529.188-.796.057-.238.04-.435-.044-.584-.087-.149-.247-.251-.474-.306-.203-.049-.367-.054-.496-.015-.132.042-.208.101-.228.181-.002.015.009.072.034.172.029.097.03.188.012.264-.038.149-.136.27-.298.354-.163.082-.347.098-.543.048-.192-.048-.333-.135-.421-.256-.085-.122-.113-.245-.08-.367.047-.18.188-.334.417-.46.235-.126.529-.202.885-.229.354-.027.727.006 1.126.102.288.068.545.177.775.33.228.152.396.343.501.568.106.227.128.477.069.751-.198.895-.395 1.791-.592 2.685-.049.214-.003.338.131.368.081.017.194-.019.336-.11.055.092.11.184.167.274-.227.13-.433.224-.613.275m5.832-3.124c-.033.202-.121.358-.257.472-.141.114-.301.156-.477.126-.082-.014-.167-.042-.256-.087-.089-.049-.164-.099-.218-.153-.034-.038-.069-.076-.101-.116-.038-.038-.071-.068-.101-.092-.027-.023-.062-.04-.098-.047-.072-.014-.148.001-.227.041-.082.036-.173.094-.281.168-.159.858-.317 1.716-.478 2.57-.033.187-.03.322.012.41.046.09.122.154.238.194.114.042.323.09.618.142-.019.098-.034.194-.053.292-1.053-.184-2.103-.386-3.152-.604.021-.098.042-.194.062-.291.054.011.106.022.161.033.448.094.708-.024.772-.354.159-.792.316-1.587.475-2.382.082-.406-.134-.739-.638-1 .013-.059.026-.119.037-.18.642-.057 1.28-.118 1.915-.188.091.017.183.035.273.051-.051.273-.101.546-.152.819.345-.258.605-.43.784-.521.174-.09.366-.116.587-.08.184.033.329.122.441.27.108.15.145.319.114.509m5.384 4.319c.107.078.295.13.574.158-.009.095-.02.189-.029.286-.712.044-1.425.082-2.142.111.026-.21.05-.418.076-.627-.618.35-1.229.484-1.817.401-.326-.043-.622-.146-.889-.314-.265-.166-.482-.378-.651-.637-.165-.259-.281-.545-.341-.854-.06-.311-.064-.631-.012-.952.075-.467.264-.871.562-1.214.295-.345.662-.594 1.092-.75.432-.157.891-.199 1.383-.134.349.047.735.172 1.161.381.054-.439.106-.88.159-1.319.036-.297.022-.516-.034-.659-.06-.146-.233-.294-.515-.447.008-.074.017-.147.028-.221.588-.109 1.176-.226 1.759-.348.076.009.15.016.228.024-.238 2.237-.477 4.474-.716 6.711-.022.188.019.324.124.404m10.293 1.146c-.252 0-.494-.054-.717-.161-.226-.103-.441-.252-.645-.441-.205-.193-.435-.443-.689-.756-.267-.327-.529-.656-.791-.986-.365-.467-.627-.79-.802-.974-.176-.182-.331-.274-.467-.279-.211-.01-.422-.021-.637-.032-.038.763-.077 1.525-.118 2.288-.01.229.012.407.068.542.058.132.193.235.402.303.113.032.25.063.416.089.167.022.292.037.374.035-.002.099-.008.198-.012.297-1.375-.053-2.748-.134-4.118-.241.006-.099.014-.198.023-.297.381.023.668.016.858-.02.188-.034.32-.116.402-.235.073-.122.122-.316.139-.588.111-1.681.222-3.362.332-5.04.02-.289.005-.504-.04-.647-.046-.146-.153-.251-.321-.323-.167-.067-.441-.123-.817-.162.008-.099.016-.197.024-.294 1.444.112 2.891.194 4.338.241.545.019 1.021.119 1.43.313.407.193.714.444.923.752.205.311.31.643.309 1 0 .234-.049.463-.151.685-.098.22-.243.422-.428.599-.19.177-.419.331-.687.455-.268.123-.576.206-.931.253.256.255.575.614.959 1.078.187.211.375.425.566.637.031.035.068.075.115.126.046.048.105.109.18.186.187.215.344.385.473.519.128.139.258.261.386.368s.253.195.377.263c.121.065.253.118.391.15.001.099.002.198.002.297-.37.001-.743.001-1.116.001m6.03-.138c-.16.1-.351.156-.577.165-.262.015-.472-.031-.62-.13-.152-.1-.264-.26-.329-.482-.526.454-1.063.687-1.602.698-.381.01-.687-.076-.914-.252-.226-.177-.34-.403-.342-.681-.003-.249.062-.462.194-.641.13-.176.306-.333.522-.473.218-.142.539-.32.958-.539.419-.221.759-.411 1.026-.568-.011-.273-.022-.545-.031-.818-.012-.244-.08-.429-.2-.55-.122-.122-.302-.177-.535-.169-.203.006-.365.046-.479.118-.111.076-.168.152-.164.236 0 .013.023.065.076.154.054.088.08.172.083.252.003.155-.06.297-.193.419-.132.128-.299.189-.505.194-.198.003-.352-.042-.47-.134-.118-.095-.177-.205-.178-.332-.003-.186.094-.373.278-.557.189-.183.45-.336.784-.455.334-.124.699-.192 1.103-.206.298-.013.572.024.831.109.262.087.47.225.634.415.163.19.251.426.267.705.047.916.096 1.83.146 2.746.012.22.087.327.227.319.081-.006.181-.069.291-.197.077.073.153.147.233.22-.181.193-.355.336-.514.434m4.633-.388c-.01-.098-.02-.198-.03-.296.253-.025.433-.083.54-.167.109-.086.151-.248.125-.487-.095-.865-.189-1.731-.284-2.597-.021-.19-.069-.345-.148-.47-.076-.122-.176-.214-.307-.271-.129-.055-.277-.073-.453-.055-.215.021-.419.096-.617.221-.198.124-.413.306-.645.542.083.949.164 1.897.247 2.846.016.164.055.285.122.366.067.08.153.127.253.141.102.012.25.015.438.002.01.099.019.197.028.297-.955.091-1.91.166-2.866.231-.006-.102-.013-.199-.02-.3.24-.016.424-.055.546-.126.129-.068.186-.21.168-.42-.059-.798-.116-1.595-.176-2.392-.019-.237-.088-.426-.213-.563-.124-.138-.316-.233-.574-.294-.006-.059-.01-.119-.014-.179.588-.219 1.171-.444 1.751-.675.072-.005.144-.01.216-.018.02.24.041.479.062.718.3-.262.576-.466.835-.614.257-.147.572-.241.943-.281 1.063-.114 1.658.318 1.783 1.327.101.816.201 1.633.302 2.45.029.231.107.372.236.416.131.047.319.052.563.021.013.099.027.197.039.296-.948.124-1.898.235-2.85.331m7.479-.892c-.036-.207-.073-.414-.109-.622-.494.514-1.036.82-1.624.914-.326.051-.64.035-.944-.046-.299-.082-.568-.224-.806-.423-.235-.195-.427-.435-.574-.717-.146-.279-.245-.582-.288-.907-.063-.469.001-.91.183-1.326.186-.414.46-.76.828-1.034.37-.271.797-.449 1.287-.529.349-.056.758-.048 1.226.028-.08-.438-.156-.873-.234-1.311-.05-.293-.123-.496-.225-.619-.098-.122-.308-.215-.622-.28-.012-.072-.023-.145-.036-.217.532-.276 1.061-.559 1.587-.847.073-.014.146-.027.221-.042.421 2.21.843 4.42 1.266 6.631.035.188.116.305.239.35.124.042.319.039.594-.015.02.093.037.187.056.281-.673.25-1.346.494-2.025.731m7.33-3.147c-.058.335-.179.644-.367.923-.185.279-.421.519-.704.716-.289.192-.609.332-.974.416-.486.114-.956.114-1.401.001-.448-.114-.823-.329-1.135-.648-.31-.313-.511-.713-.606-1.187-.093-.451-.063-.888.087-1.311.152-.421.396-.779.737-1.076.346-.301.751-.503 1.222-.613.458-.105.902-.102 1.335.011.428.113.801.323 1.113.63s.53.679.646 1.123c.086.34.107.678.047 1.015m8.212-1.035c-.034-.095-.065-.189-.1-.282.048-.017.092-.032.137-.048.215-.074.352-.165.417-.279.063-.113.063-.271-.008-.465-.26-.732-.517-1.462-.776-2.195-.124-.353-.276-.607-.446-.767-.177-.158-.407-.188-.696-.088-.401.139-.771.497-1.115 1.078.288.881.577 1.762.866 2.643.063.184.142.319.238.4.101.081.229.099.381.053.063-.021.113-.037.152-.05.042-.012.092-.026.142-.041.032.096.063.188.095.283-.916.311-1.835.604-2.759.887-.029-.095-.061-.189-.087-.284.305-.082.493-.184.554-.301.063-.12.061-.291-.013-.521-.236-.755-.476-1.513-.712-2.269-.215-.686-.577-.948-1.084-.793-.187.058-.386.183-.602.378-.215.197-.396.415-.53.654.268.924.535 1.85.804 2.774.061.204.162.323.302.351.139.034.333.011.588-.065.026.095.058.19.084.286-.945.281-1.893.549-2.843.802-.026-.094-.053-.19-.079-.286.026-.008.05-.014.073-.021.191-.052.334-.109.423-.174.092-.066.142-.148.149-.246.003-.096-.013-.218-.053-.365-.196-.71-.391-1.419-.585-2.129-.071-.25-.163-.426-.289-.53-.12-.105-.344-.171-.659-.198-.016-.06-.031-.118-.047-.178.552-.34 1.098-.686 1.641-1.034.061-.019.121-.035.182-.053.07.237.139.476.207.712.226-.316.476-.582.746-.796s.549-.365.84-.454c.199-.063.399-.093.606-.095.207 0 .407.03.594.096.184.067.344.167.478.303.231-.353.478-.643.737-.876.266-.233.564-.407.896-.523.308-.106.594-.15.861-.131.263.024.499.12.701.296.21.173.37.419.488.737.283.767.567 1.536.851 2.303.047.128.104.216.173.267.068.053.158.076.276.071.118-.006.265-.044.451-.113.034.093.071.187.105.278-.917.347-1.833.679-2.755.998"/><path d="m93.42 73.71c-.071-.198-.155-.354-.252-.477-.098-.118-.239-.191-.418-.222-.176-.029-.406.008-.695.112.297-.006.515.044.656.152.142.106.263.307.362.59.258.718.512 1.435.767 2.152.095.266.145.452.157.56.009.111-.036.231-.136.361.188-.061.32-.146.389-.246.073-.103.1-.212.086-.329-.016-.118-.047-.249-.1-.394-.272-.752-.543-1.506-.816-2.259"/><path d="m71.21 78.84c-.035-.309-.134-.537-.295-.682-.164-.144-.427-.204-.789-.182.214.058.373.157.479.296s.173.335.203.59c.098.884.195 1.767.293 2.649.012.112.02.194.02.249-.001.05-.011.103-.03.153-.02.054-.063.117-.129.197.037-.004.072-.008.11-.013.204-.022.335-.104.384-.254.051-.145.061-.354.028-.63-.09-.79-.181-1.581-.274-2.373"/><path d="m80.43 78.51c-.072-.345-.077-.662-.013-.946.058-.286.162-.545.314-.774.147-.229.34-.474.576-.739-.347.212-.622.458-.829.742-.204.282-.339.584-.399.904-.058.32-.057.645.011.976.05.238.141.469.271.683.128.214.29.402.488.557.195.154.425.278.69.364.261.092.555.143.88.15-.569-.164-1.02-.412-1.35-.738-.332-.329-.544-.723-.639-1.179"/><path d="m75.62 81.51c-.269-.057-.521-.163-.755-.319-.235-.156-.432-.357-.587-.6-.156-.244-.255-.522-.298-.827-.136-.954.271-1.788 1.184-2.52-.302.112-.553.256-.748.422-.298.24-.522.555-.671.943-.145.39-.192.788-.137 1.194.054.393.192.747.418 1.06.227.313.513.544.87.693.354.151.735.193 1.133.13.277-.043.518-.121.72-.232-.179.045-.292.069-.338.076-.261.044-.523.037-.791-.02"/><path d="m43.15 77.54c-.125-.137-.23-.212-.326-.228-.091-.017-.234.026-.428.126.1.018.194.068.285.151.205.215.385.335.545.363.197.033.362-.063.491-.285-.111.033-.194.042-.242.036-.115-.018-.223-.071-.325-.163"/><path d="m76.51 77.2c-.189-.053-.373-.064-.553-.034-.268.045-.5.163-.704.352-.196.191-.34.452-.425.785-.084.329-.091.729-.021 1.193.06.393.172.724.336.991.16.269.368.461.609.575.24.112.504.146.782.1.406-.066.754-.259 1.048-.576-.187-1.04-.369-2.081-.554-3.121-.156-.124-.33-.214-.518-.265"/><path d="m77.21 75.37c-.059-.32-.149-.549-.276-.683-.128-.136-.346-.175-.662-.12-.063.011-.123.022-.184.033.291.072.484.169.573.293.088.124.154.303.194.53.35 1.953.7 3.908 1.049 5.861.12-.072.204-.148.252-.225.051-.079.06-.188.036-.32-.328-1.79-.655-3.58-.982-5.369"/><path d="m32.562 71.63c-.051-.018-.103-.032-.154-.048.131.113.204.235.225.369.014.133-.009.315-.078.548-.513 1.713-1.024 3.425-1.536 5.138-.076.255-.162.424-.256.508-.096.081-.228.14-.398.176.063.02.127.04.19.06.206.062.372.051.494-.029.126-.079.219-.237.289-.469.504-1.716 1.01-3.432 1.516-5.148.093-.317.131-.564.113-.733-.021-.174-.154-.298-.405-.372"/><path d="m53.955 75.57c-.107-.08-.277-.117-.509-.122.187.096.297.211.34.352.041.137.051.361.029.677-.112 1.777-.226 3.552-.339 5.329-.022.335-.172.56-.453.668.518.028.788-.142.809-.494.11-1.817.219-3.636.329-5.449.016-.277.013-.488-.01-.633-.023-.145-.088-.255-.196-.328"/><g fill-rule="evenodd"><path d="m27.332 39.917c0 0-3.96 2.447-11.721-.32-10.762-3.836-11.03-18.549-13.533-19.607-2.025-.853-2.923 13.67-1.065 20.892.655 2.548 1.76 4.694 3.148 6.505.404-1.191.888-2.38 1.473-3.568-.411 1.396-.726 2.796-.974 4.192.942 1.125 1.995 2.111 3.112 2.975.477-2.142 1.199-4.272 2.27-6.379-.702 2.292-1.137 4.652-1.387 7.03 1.104.771 2.255 1.434 3.416 2 .505-2.675 1.322-5.346 2.632-8.01-.833 2.841-1.29 5.684-1.533 8.517 1.086.476 2.166.876 3.208 1.213.414-3 1.234-5.997 2.733-8.944-.927 3.02-1.388 6.161-1.574 9.295 1.218.347 2.364.606 3.379.801.48-3.034 1.333-6.06 2.818-9.08-.911 3.101-1.372 6.205-1.596 9.294 1.867.297 3.064.348 3.064.348.079-.03.156-.061.235-.091.421-2.943 1.236-5.877 2.706-8.764-.825 2.69-1.279 5.474-1.5 8.264 3.376-1.508 5.491-3.541 5.491-8.07-.002-5.304-4.802-8.499-4.802-8.499"/><path d="m92.42 39.917c0 0 3.962 2.447 11.723-.32 10.762-3.835 11.02-18.548 13.534-19.606 2.024-.854 2.922 13.669 1.066 20.892-.656 2.548-1.765 4.694-3.148 6.505-.406-1.191-.89-2.38-1.476-3.568.41 1.396.728 2.796.975 4.192-.94 1.125-1.993 2.111-3.111 2.975-.478-2.142-1.2-4.272-2.271-6.379.704 2.292 1.138 4.652 1.387 7.03-1.103.771-2.253 1.434-3.416 2-.504-2.675-1.32-5.346-2.631-8.01.833 2.841 1.29 5.684 1.534 8.517-1.085.476-2.164.876-3.209 1.213-.415-3-1.233-5.997-2.732-8.944.927 3.02 1.389 6.161 1.572 9.295-1.216.347-2.363.606-3.379.801-.48-3.034-1.331-6.06-2.817-9.08.911 3.101 1.373 6.205 1.597 9.294-1.867.297-3.062.348-3.062.348-.081-.03-.157-.061-.239-.091-.42-2.943-1.233-5.877-2.704-8.764.824 2.69 1.279 5.474 1.502 8.264-3.379-1.508-5.492-3.541-5.492-8.07-.002-5.305 4.797-8.5 4.797-8.5"/></g></g></svg>