<svg xmlns="http://www.w3.org/2000/svg" viewBox="0 0 42.52 34.397" enable-background="new 0 0 42.52 34.397"><switch><g><path fill="#3c3e3d" d="m0 0h42.52v34.384h-42.52z"/><path fill-rule="evenodd" fill="#fdfbfb" d="m20.945 25.395h1.737c0 0 .521-.055.789-.347.249-.264.238-.759.238-.759s-.032-2.326 1.047-2.669c1.065-.339 2.432 2.247 3.885 3.243 1.095.751 1.927.587 1.927.587l3.875-.055c0 0 2.027-.128 1.067-1.719-.08-.128-.561-1.174-2.883-3.329-2.432-2.258-2.105-1.893.82-5.792 1.785-2.374 2.5-3.822 2.274-4.446-.212-.59-1.521-.434-1.521-.434l-4.366.025c0 0-.322-.04-.564.098-.234.142-.383.471-.383.471s-.692 1.834-1.61 3.399c-1.946 3.296-2.721 3.473-3.038 3.267-.74-.477-.553-1.918-.553-2.939 0-3.195.481-4.529-.944-4.876-.474-.113-.825-.189-2.041-.2-1.555-.015-2.871.004-3.617.369-.498.244-.88.787-.645.816.286.04.939.176 1.287.649.448.61.43 1.97.43 1.97s.26 3.764-.602 4.233c-.587.322-1.394-.335-3.125-3.329-.889-1.529-1.558-3.228-1.558-3.228s-.13-.314-.361-.481c-.277-.204-.67-.273-.67-.273l-4.145.03c0 0-.623.014-.85.288-.204.237-.016.736-.016.736s3.247 7.593 6.922 11.419c3.369 3.509 7.194 3.276 7.194 3.276"/></g></switch></svg>