<?xml version="1.0" encoding="utf-8"?>
<!-- Generator: Adobe Illustrator 16.0.0, SVG Export Plug-In . SVG Version: 6.00 Build 0)  -->
<!DOCTYPE svg PUBLIC "-//W3C//DTD SVG 1.1//EN" "http://www.w3.org/Graphics/SVG/1.1/DTD/svg11.dtd">
<svg version="1.1" id="Слой_1" xmlns="http://www.w3.org/2000/svg" xmlns:xlink="http://www.w3.org/1999/xlink" x="0px" y="0px"
	 width="85.04px" height="85.04px" viewBox="0 0 85.04 85.04" enable-background="new 0 0 85.04 85.04" xml:space="preserve">
<linearGradient id="SVGID_1_" gradientUnits="userSpaceOnUse" x1="21.2559" y1="79.3496" x2="63.7831" y2="5.6903">
	<stop  offset="0" style="stop-color:#954D26"/>
	<stop  offset="0.467" style="stop-color:#B18154"/>
	<stop  offset="1" style="stop-color:#8F4D2A"/>
</linearGradient>
<path fill="url(#SVGID_1_)" d="M85.039,42.519c0,23.486-19.035,42.52-42.521,42.52C19.034,85.039,0,66.005,0,42.519
	C0,19.038,19.034,0,42.518,0C66.004,0,85.039,19.038,85.039,42.519z"/>
<linearGradient id="SVGID_2_" gradientUnits="userSpaceOnUse" x1="22.2109" y1="77.6953" x2="62.8278" y2="7.3449">
	<stop  offset="0.0056" style="stop-color:#E8EAEB"/>
	<stop  offset="0.2528" style="stop-color:#E2CDB2"/>
	<stop  offset="0.4165" style="stop-color:#E0D1BD"/>
	<stop  offset="0.5955" style="stop-color:#DDD6CC"/>
	<stop  offset="0.7865" style="stop-color:#F2F2F2"/>
	<stop  offset="1" style="stop-color:#DCCDBD"/>
</linearGradient>
<circle fill="url(#SVGID_2_)" cx="42.519" cy="42.519" r="40.61"/>
<linearGradient id="SVGID_3_" gradientUnits="userSpaceOnUse" x1="14.48" y1="70.5605" x2="70.5592" y2="14.4813">
	<stop  offset="0.0672" style="stop-color:#C6815A"/>
	<stop  offset="0.1728" style="stop-color:#C27E58"/>
	<stop  offset="0.2846" style="stop-color:#B87753"/>
	<stop  offset="0.3988" style="stop-color:#A86C4A"/>
	<stop  offset="0.511" style="stop-color:#935E40"/>
	<stop  offset="0.6241" style="stop-color:#9F6D4F"/>
	<stop  offset="0.8467" style="stop-color:#C09A7D"/>
	<stop  offset="1" style="stop-color:#DBBFA6"/>
</linearGradient>
<path fill="url(#SVGID_3_)" d="M82.169,42.519c0,21.905-17.749,39.657-39.651,39.657c-21.899,0-39.65-17.752-39.65-39.657
	c0-21.903,17.751-39.653,39.65-39.653C64.42,2.866,82.169,20.616,82.169,42.519z"/>
<linearGradient id="SVGID_4_" gradientUnits="userSpaceOnUse" x1="25.1152" y1="72.6631" x2="59.9225" y2="12.3752">
	<stop  offset="0.0056" style="stop-color:#E8EAEB"/>
	<stop  offset="0.4781" style="stop-color:#BF906D"/>
	<stop  offset="0.6061" style="stop-color:#C49C7C"/>
	<stop  offset="0.859" style="stop-color:#D3BAA4"/>
	<stop  offset="1" style="stop-color:#DCCDBD"/>
</linearGradient>
<path fill="url(#SVGID_4_)" d="M77.325,42.519c0,19.216-15.585,34.801-34.807,34.801c-19.219,0-34.803-15.585-34.803-34.801
	c0-19.223,15.584-34.8,34.803-34.8C61.74,7.719,77.325,23.296,77.325,42.519z"/>
<linearGradient id="SVGID_5_" gradientUnits="userSpaceOnUse" x1="25.8506" y1="71.3906" x2="59.1857" y2="13.6526">
	<stop  offset="0" style="stop-color:#954D26"/>
	<stop  offset="0.467" style="stop-color:#CCAE9A"/>
	<stop  offset="1" style="stop-color:#8F4D2A"/>
</linearGradient>
<path fill="url(#SVGID_5_)" d="M75.85,42.519c0,18.411-14.924,33.332-33.332,33.332c-18.407,0-33.33-14.921-33.33-33.332
	c0-18.41,14.923-33.326,33.33-33.326C60.926,9.193,75.85,24.109,75.85,42.519z"/>
<linearGradient id="SVGID_6_" gradientUnits="userSpaceOnUse" x1="58.4258" y1="70.0732" x2="26.6118" y2="14.9698">
	<stop  offset="0" style="stop-color:#A16F4F"/>
	<stop  offset="0.0021" style="stop-color:#A17050"/>
	<stop  offset="0.101" style="stop-color:#C09776"/>
	<stop  offset="0.1999" style="stop-color:#DAB997"/>
	<stop  offset="0.2976" style="stop-color:#EED4B2"/>
	<stop  offset="0.3937" style="stop-color:#FBE4C2"/>
	<stop  offset="0.4862" style="stop-color:#FFE9C8"/>
	<stop  offset="0.5639" style="stop-color:#F9E2C0"/>
	<stop  offset="0.6638" style="stop-color:#E9CDAB"/>
	<stop  offset="0.7759" style="stop-color:#D0AD8B"/>
	<stop  offset="0.8959" style="stop-color:#B18363"/>
	<stop  offset="1" style="stop-color:#935E40"/>
</linearGradient>
<path fill="url(#SVGID_6_)" d="M74.325,42.519c0,17.568-14.242,31.812-31.807,31.812c-17.566,0-31.806-14.244-31.806-31.812
	c0-17.564,14.24-31.807,31.806-31.807C60.083,10.712,74.325,24.955,74.325,42.519z"/>
<g>
	<g>
		<path fill="#9A5E3F" d="M50.349,56.599c-2.705,2.446-5.214,3.928-6.949,4.947c-0.354,0.211-0.677,0.398-0.963,0.575
			c-0.288-0.177-0.61-0.364-0.967-0.575c-1.691-0.993-4.12-2.425-6.748-4.773c-0.452-0.082-0.896-0.169-1.336-0.269
			c3.826,3.653,7.364,5.356,9.051,6.452c1.715-1.112,5.365-2.864,9.276-6.678C51.265,56.393,50.81,56.501,50.349,56.599z"/>
		<path fill="#9A5E3F" d="M25.921,43.965l0.34,0.104c0.056,0.019,0.117,0.036,0.168,0.054c-0.254-0.957-0.358-1.611-0.35-2.035
			c0.087-0.046,0.174-0.096,0.248-0.134c1.549-0.822,3.423-2.2,4.211-5.555c0.952-4.049-1.132-6.914-2.091-7.969
			c0.618-0.906,1.827-2.417,4.489-2.757c4.467-0.574,7.992-1.759,9.5-2.417c1.508,0.658,5.028,1.843,9.5,2.417
			c2.658,0.34,3.865,1.851,4.48,2.757c-0.954,1.055-3.037,3.919-2.088,7.969c0.792,3.355,2.663,4.733,4.218,5.559
			c0.07,0.035,0.159,0.084,0.244,0.13c0.008,0.397-0.082,0.975-0.302,1.84c0.266-0.08,0.526-0.142,0.776-0.192
			c0.228-1.02,0.276-1.694,0.182-2.08c-0.133-0.091-0.386-0.223-0.572-0.327c-1.253-0.666-3.093-1.836-3.857-5.091
			c-1.109-4.716,2.309-7.723,2.309-7.723c-0.529-0.751-1.755-3.086-5.303-3.543c-4.44-0.568-8.122-1.793-9.587-2.487
			c-1.468,0.694-5.152,1.919-9.591,2.487c-3.552,0.457-4.778,2.792-5.306,3.543c0,0,3.419,3.007,2.31,7.723
			c-0.766,3.255-2.602,4.425-3.853,5.091c-0.194,0.104-0.441,0.236-0.578,0.327c-0.099,0.404-0.037,1.138,0.221,2.229
			C25.736,43.91,25.827,43.935,25.921,43.965z"/>
		<path fill="#9A5E3F" d="M53.396,55.799c-0.095,0.029-0.195,0.057-0.293,0.086c-3.466,3.632-6.814,5.606-8.986,6.884
			c-0.506,0.296-0.943,0.551-1.295,0.781l-0.385,0.25l-0.385-0.25c-0.355-0.23-0.791-0.485-1.298-0.781
			c-2.116-1.244-5.35-3.151-8.719-6.609c-0.373-0.101-0.745-0.212-1.116-0.325c-0.558-0.18-1.085-0.369-1.607-0.564
			c4.089,4.809,8.184,7.226,10.726,8.717c0.484,0.282,0.903,0.532,1.24,0.749l1.16,0.754l1.154-0.754
			c0.34-0.217,0.759-0.467,1.242-0.749c2.603-1.529,6.839-4.02,11.021-9.064C55.063,55.231,54.26,55.524,53.396,55.799z"/>
		<path fill="#9A5E3F" d="M23.671,43.583c0.378,0,0.781,0.043,1.2,0.12c-0.215-1.038-0.253-1.752-0.137-2.217l0.063-0.266
			l0.231-0.154c0.145-0.099,0.415-0.244,0.626-0.357c0.899-0.48,2.762-1.47,3.505-4.632c0.996-4.229-1.961-6.919-2.09-7.034
			l-0.47-0.419l0.363-0.515c0.042-0.063,0.092-0.137,0.146-0.221c0.626-0.946,2.093-3.163,5.647-3.615
			c4.622-0.594,8.152-1.846,9.375-2.429l0.304-0.143l0.302,0.143c1.221,0.583,4.75,1.834,9.377,2.429
			c3.554,0.453,5.019,2.669,5.645,3.615c0.052,0.084,0.106,0.159,0.149,0.221l0.363,0.518l-0.475,0.419
			c-0.127,0.113-3.084,2.803-2.091,7.032c0.743,3.163,2.604,4.152,3.499,4.628c0.22,0.117,0.487,0.262,0.634,0.361l0.229,0.154
			l0.07,0.266c0.105,0.453,0.073,1.134-0.125,2.129c0.206-0.019,0.401-0.031,0.592-0.031c0.307,0,0.58,0.029,0.835,0.071
			c0.195-1.101,0.217-1.908,0.07-2.506l-0.2-0.8l-0.681-0.457c-0.177-0.12-0.497-0.296-0.76-0.433
			c-1.058-0.567-2.232-1.366-2.785-3.707c-0.792-3.367,1.557-5.565,1.648-5.644l1.427-1.257l-1.099-1.558l-0.124-0.187
			c-0.67-1.013-2.449-3.7-6.643-4.238c-4.129-0.529-7.614-1.667-8.951-2.301l-0.908-0.433l-0.913,0.433
			c-1.338,0.635-4.825,1.772-8.946,2.301c-4.196,0.539-5.977,3.225-6.646,4.238l-1.184,1.729l1.378,1.258
			c0.1,0.094,2.452,2.292,1.659,5.659c-0.549,2.341-1.725,3.14-2.794,3.71c-0.253,0.133-0.574,0.309-0.749,0.429l-0.682,0.457
			l-0.198,0.8c-0.145,0.583-0.126,1.375,0.059,2.447C23.505,43.592,23.582,43.583,23.671,43.583z"/>
		<path fill="#9A5E3F" d="M20.513,48.57c-1.936-0.743-4.656-1.413-6.097-1.5c1.616,2.01,2.364,4.288,2.396,4.389l0.037,0.105
			l-0.056,0.104c-0.025,0.057-0.668,1.313-2.529,3.905c0.015,0,0.027,0,0.043,0c1.202,0,2.546,0.296,3.887,0.857
			c5.353,2.229,8.796,3.482,10.232,3.71c0.6,0.098,1.18,0.152,1.727,0.152c1.086,0,1.965-0.201,2.539-0.575
			c-0.839-0.735-1.695-1.563-2.566-2.49c-0.224-0.011-0.45-0.019-0.686-0.019c-1.092,0-2.208,0.116-3.317,0.345
			c-2.21,0.458-3.775,0.271-4.654-0.551c-0.479-0.445-0.916-1.066-0.955-1.837V48.57z"/>
		<path fill="#9A5E3F" d="M64.528,48.554c1.931-0.743,4.654-1.491,6.095-1.578c-1.611,2.007-2.362,4.285-2.396,4.389l-0.035,0.108
			l0.055,0.098c0.024,0.054,0.67,1.313,2.527,3.908c-0.011,0-0.027,0-0.04,0c-1.205,0-2.545,0.296-3.89,0.854
			c-5.349,2.234-8.794,3.482-10.231,3.716c-0.597,0.098-1.18,0.146-1.725,0.146c-1.088,0-1.969-0.201-2.536-0.57
			c0.838-0.737,1.695-1.567,2.558-2.495c0.23-0.008,0.456-0.019,0.691-0.019c1.091,0,2.205,0.116,3.317,0.347
			c2.208,0.459,3.775,0.269,4.654-0.55c0.48-0.445,0.92-1.072,0.955-1.837V48.554z"/>
		<path fill="#9A5E3F" d="M28.551,54.911c-0.586-0.23-1.168-0.466-1.762-0.71c-0.472-0.195-0.951-0.396-1.44-0.592
			c-0.754-0.304-1.432-0.453-2.021-0.453c-1.554,0-2.143,1.096-2.213,1.517c-0.121,0.7,0.191,1.264,0.59,1.636
			c0.708,0.659,2.095,0.794,4.051,0.388c1.158-0.239,2.322-0.358,3.462-0.358c0.192,0,0.38,0.006,0.57,0.011
			C29.375,55.894,28.963,55.416,28.551,54.911z"/>
		<path fill="#9A5E3F" d="M56.392,54.911c0.586-0.23,1.171-0.466,1.763-0.71c0.478-0.195,0.955-0.396,1.443-0.592
			c0.751-0.304,1.432-0.453,2.018-0.453c1.554,0,2.143,1.096,2.213,1.517c0.122,0.7-0.189,1.264-0.591,1.636
			c-0.705,0.659-2.092,0.794-4.047,0.388c-1.161-0.239-2.324-0.358-3.464-0.358c-0.192,0-0.382,0.006-0.566,0.011
			C55.569,55.894,55.981,55.416,56.392,54.911z"/>
		<path fill="#9A5E3F" d="M53.201,44.941c-0.16-0.094-0.319-0.219-0.488-0.372c-0.168-0.157-0.336-0.331-0.504-0.526
			c-0.168-0.193-0.38-0.436-0.63-0.733c-0.095-0.11-0.173-0.198-0.238-0.269c-0.065-0.069-0.111-0.127-0.154-0.173l-0.763-0.902
			c-0.521-0.649-0.96-1.15-1.313-1.507c0.472-0.079,0.887-0.208,1.248-0.389c0.354-0.183,0.659-0.404,0.914-0.66
			c0.252-0.255,0.441-0.545,0.577-0.86c0.136-0.316,0.201-0.645,0.201-0.979c0-0.511-0.146-0.984-0.435-1.425
			c-0.293-0.439-0.724-0.792-1.302-1.055c-0.572-0.266-1.242-0.399-2.007-0.399h-6.093l0.016,0.574
			c0.529,0.012,0.791-0.037,1.028,0.046c0.243,0.083,0.509,0.178,0.587,0.377c0.076,0.201,0.113,0.507,0.113,0.918v7.212
			c0,0.384-0.045,0.67-0.132,0.851c-0.095,0.179-0.259,0.305-0.501,0.374c-0.243,0.07-0.612,0.108-1.111,0.12v0.425h5.35v-0.425
			c-0.105,0.006-0.27-0.008-0.487-0.032c-0.217-0.025-0.399-0.061-0.548-0.101c-0.277-0.081-0.458-0.215-0.541-0.402
			c-0.081-0.184-0.12-0.442-0.12-0.765v-3.271h0.853c0.179,0,0.395,0.125,0.641,0.372c0.244,0.252,0.615,0.7,1.114,1.348l1.08,1.374
			c0.347,0.438,0.65,0.793,0.927,1.061c0.267,0.266,0.548,0.478,0.844,0.621c0.29,0.145,0.605,0.221,0.931,0.221h1.453v-0.425
			C53.532,45.113,53.361,45.039,53.201,44.941z M44.688,44.383c0,0.503-0.341,0.765-1.014,0.78c0.356-0.182,0.535-0.515,0.535-0.996
			v-7.622c0-0.449-0.036-0.771-0.108-0.96c-0.066-0.195-0.236-0.35-0.504-0.469c0.327-0.018,0.564,0.026,0.724,0.124
			c0.155,0.096,0.255,0.25,0.3,0.453c0.044,0.203,0.067,0.503,0.067,0.9V44.383z M50.213,35.921c0.33,0.419,0.499,0.987,0.499,1.694
			c0,0.734-0.19,1.313-0.562,1.743c-0.366,0.426-0.898,0.682-1.587,0.771c0.545-0.216,0.952-0.495,1.224-0.844
			c0.269-0.346,0.403-0.874,0.403-1.574c0-0.665-0.113-1.196-0.347-1.594c-0.226-0.403-0.569-0.719-1.036-0.955
			C49.415,35.251,49.887,35.505,50.213,35.921z M45.869,40.166v-3.484c0-0.407,0.031-0.719,0.093-0.93
			c0.065-0.213,0.195-0.372,0.403-0.478c0.206-0.105,0.502-0.159,0.899-0.159c0.391,0,0.713,0.026,0.965,0.079
			c0.255,0.05,0.494,0.157,0.725,0.312c0.656,0.456,0.984,1.164,0.984,2.125c0,0.811-0.214,1.421-0.638,1.815
			c-0.206,0.208-0.521,0.381-0.933,0.514c-0.409,0.139-0.83,0.206-1.252,0.206H45.869z M51.672,45.246
			c-0.223-0.069-0.485-0.218-0.778-0.451c-0.296-0.233-0.61-0.569-0.955-1.009c-0.377-0.487-0.751-0.968-1.12-1.44
			c-0.374-0.478-0.681-0.851-0.928-1.13c-0.244-0.278-0.455-0.487-0.642-0.624h0.634c0.133,0.08,0.235,0.166,0.317,0.259
			c0.07,0.087,0.133,0.169,0.185,0.244c0.379,0.405,0.748,0.835,1.109,1.292c0.357,0.461,0.702,0.895,1.038,1.311
			c0.342,0.411,0.654,0.755,0.947,1.027c0.295,0.271,0.599,0.484,0.919,0.639C52.141,45.351,51.899,45.314,51.672,45.246z"/>
		<path fill="#9A5E3F" d="M38.891,30.121c0.479,0.04,0.823,0.085,1.035,0.148s0.359,0.176,0.445,0.35
			c0.093,0.173,0.133,0.452,0.133,0.834v3.242h-5.49v-2.83c0-0.498,0.027-0.861,0.085-1.087c0.058-0.227,0.199-0.388,0.42-0.495
			c0.22-0.103,0.584-0.155,1.093-0.162v-0.423h-5.158v0.423c0.626,0.026,1.058,0.115,1.286,0.269
			c0.228,0.149,0.345,0.471,0.345,0.968V38.6c0,0.353-0.024,0.623-0.067,0.821c-0.044,0.192-0.121,0.346-0.237,0.453
			c-0.118,0.106-0.272,0.183-0.472,0.221s-0.481,0.063-0.854,0.075v0.423h5.158v-0.423c-0.413-0.038-0.712-0.082-0.914-0.133
			c-0.2-0.05-0.35-0.137-0.446-0.25c-0.106-0.117-0.168-0.27-0.194-0.465c-0.033-0.191-0.045-0.48-0.045-0.86v-3.196h5.49v3.365
			c0,0.454-0.035,0.778-0.102,0.975c-0.073,0.195-0.21,0.331-0.422,0.407c-0.211,0.079-0.571,0.133-1.089,0.157v0.423h5.157v-0.423
			c-0.501,0.009-0.861-0.037-1.083-0.138c-0.228-0.099-0.369-0.259-0.433-0.475c-0.069-0.213-0.096-0.533-0.096-0.957v-6.734
			c0-0.527,0.031-0.907,0.1-1.135c0.068-0.224,0.205-0.381,0.42-0.461c0.21-0.083,0.577-0.133,1.092-0.148v-0.423h-5.157V30.121z
			 M33.832,38.756c0,0.472-0.059,0.825-0.182,1.059c-0.12,0.237-0.328,0.354-0.628,0.354H32.8c0.156-0.103,0.281-0.246,0.382-0.427
			c0.104-0.186,0.158-0.499,0.158-0.948v-7.375c0-0.407-0.04-0.7-0.125-0.876c-0.079-0.178-0.22-0.319-0.415-0.422
			c0.324-0.02,0.564,0.024,0.709,0.129c0.142,0.113,0.233,0.281,0.27,0.499c0.034,0.227,0.053,0.584,0.053,1.078V38.756z
			 M40.427,30.121c0.362,0,0.586,0.113,0.681,0.341c0.088,0.225,0.138,0.576,0.138,1.051v7.657c0,0.347-0.063,0.601-0.187,0.758
			c-0.121,0.16-0.322,0.241-0.6,0.241h-0.256c0.198-0.121,0.336-0.256,0.426-0.407c0.084-0.153,0.13-0.419,0.13-0.8v-7.65
			c0-0.343-0.038-0.605-0.115-0.781c-0.077-0.173-0.225-0.311-0.441-0.41H40.427z"/>
		<g>
			<path fill="#9A5E3F" d="M35.669,50.816c-0.092-0.055-0.188-0.093-0.289-0.104c-0.153-0.021-0.294,0.003-0.436,0.07
				c-0.136,0.07-0.253,0.19-0.353,0.353c-0.099,0.163-0.166,0.375-0.205,0.635c-0.033,0.22-0.029,0.415,0.018,0.581
				c0.044,0.173,0.121,0.309,0.232,0.406c0.112,0.104,0.245,0.163,0.403,0.185c0.226,0.032,0.446-0.014,0.653-0.139
				c0.071-0.588,0.137-1.174,0.21-1.76C35.842,50.951,35.763,50.876,35.669,50.816z"/>
			<path fill="#9A5E3F" d="M41.063,51.277c0.18-0.152,0.272-0.386,0.278-0.705c0.008-0.375-0.121-0.657-0.378-0.841
				c-0.092-0.065-0.186-0.109-0.287-0.134c-0.1-0.024-0.231-0.04-0.388-0.046c-0.156-0.005-0.276,0.011-0.359,0.046
				c-0.084,0.038-0.141,0.101-0.172,0.183c-0.027,0.081-0.049,0.2-0.057,0.357c-0.024,0.456-0.046,0.914-0.068,1.367
				c0.168,0.008,0.343,0.017,0.52,0.024c0.172,0.008,0.346-0.008,0.519-0.063C40.843,51.421,40.974,51.358,41.063,51.277z"/>
			<path fill="#9A5E3F" d="M44.15,52.617c-0.106,0.122-0.157,0.266-0.153,0.434c0.001,0.108,0.038,0.192,0.103,0.252
				c0.07,0.058,0.149,0.084,0.234,0.084c0.141-0.005,0.282-0.073,0.422-0.211c-0.015-0.325-0.026-0.646-0.041-0.969
				C44.446,52.362,44.258,52.5,44.15,52.617z"/>
			<path fill="#9A5E3F" d="M29.057,51.022c-0.133,0.086-0.223,0.211-0.262,0.368c-0.027,0.108-0.015,0.201,0.034,0.277
				c0.053,0.075,0.121,0.119,0.205,0.141c0.137,0.032,0.293,0.006,0.465-0.087c0.073-0.314,0.149-0.629,0.22-0.943
				C29.415,50.854,29.195,50.936,29.057,51.022z"/>
			<path fill="#9A5E3F" d="M55.748,50.902c-0.1-0.406-0.235-0.71-0.406-0.911c-0.171-0.2-0.358-0.276-0.562-0.228
				c-0.195,0.043-0.331,0.168-0.407,0.363c-0.07,0.195-0.07,0.467,0.006,0.809c0.092,0.423,0.233,0.734,0.417,0.946
				c0.188,0.209,0.391,0.29,0.608,0.236c0.108-0.022,0.2-0.087,0.271-0.193c0.073-0.1,0.12-0.241,0.136-0.414
				C55.827,51.34,55.806,51.136,55.748,50.902z"/>
			<path fill="#9A5E3F" d="M63.145,45.022c-0.873-0.821-2.37-0.967-4.204-0.395l-0.374,0.116c-3.276,1.027-9.365,2.937-16.108,2.937
				c-6.718-0.024-12.778-1.926-16.033-2.948l-0.34-0.107c-1.828-0.569-3.327-0.424-4.196,0.397c-0.532,0.502-0.7,1.134-0.684,1.555
				v6.799c0.433-0.477,1.223-0.911,2.325-0.911c0.677,0,1.441,0.168,2.277,0.505c0.494,0.195,0.974,0.396,1.447,0.591
				c1.413,0.581,2.749,1.134,4.253,1.611c3.227,1.03,6.602,1.494,10.951,1.503h0.118c4.294-0.009,7.682-0.483,10.983-1.535
				c1.557-0.494,2.945-1.061,4.41-1.66c0.415-0.174,0.83-0.339,1.253-0.51c0.836-0.337,1.604-0.505,2.278-0.505
				c1.053,0,1.874,0.478,2.336,0.977v-6.864C63.85,46.153,63.677,45.524,63.145,45.022z M27.733,48.223
				c-0.24,0.847-0.479,1.692-0.722,2.539c-0.046,0.163-0.066,0.282-0.063,0.374c0.003,0.087,0.045,0.166,0.129,0.229
				c0.082,0.064,0.231,0.124,0.439,0.179c-0.016,0.049-0.028,0.103-0.044,0.16c-0.72-0.198-1.442-0.407-2.154-0.632
				c0.015-0.055,0.034-0.106,0.052-0.157c0.214,0.06,0.37,0.081,0.468,0.081c0.096,0,0.167-0.035,0.221-0.101
				c0.05-0.063,0.103-0.182,0.15-0.355c0.129-0.42,0.256-0.841,0.381-1.264c-0.735-0.223-1.469-0.456-2.197-0.711
				c-0.133,0.396-0.272,0.792-0.411,1.188c-0.05,0.141-0.076,0.249-0.091,0.325c-0.012,0.073-0.008,0.139,0.019,0.198
				c0.027,0.057,0.077,0.111,0.152,0.154c0.077,0.049,0.198,0.108,0.364,0.179c-0.019,0.049-0.037,0.104-0.055,0.155
				c-0.712-0.236-1.418-0.488-2.125-0.757c0.021-0.052,0.041-0.104,0.059-0.154c0.15,0.057,0.271,0.089,0.358,0.103
				c0.089,0.017,0.161,0.014,0.222-0.008c0.064-0.021,0.117-0.068,0.16-0.133c0.045-0.063,0.091-0.163,0.136-0.29
				c0.324-0.89,0.648-1.779,0.971-2.669c0.068-0.185,0.067-0.317,0-0.407c-0.066-0.087-0.219-0.181-0.456-0.28
				c0.022-0.051,0.041-0.104,0.061-0.153c0.65,0.245,1.309,0.477,1.965,0.696c-0.018,0.055-0.037,0.108-0.054,0.16
				c-0.195-0.064-0.339-0.092-0.439-0.084c-0.096,0.011-0.174,0.052-0.224,0.128c-0.051,0.075-0.11,0.209-0.172,0.391
				c-0.121,0.35-0.243,0.699-0.365,1.047c0.727,0.255,1.454,0.488,2.185,0.71c0.127-0.406,0.248-0.811,0.369-1.215
				c0.045-0.144,0.06-0.255,0.045-0.331c-0.015-0.073-0.061-0.136-0.136-0.185c-0.076-0.049-0.201-0.105-0.382-0.179
				c0.016-0.052,0.034-0.103,0.052-0.157c0.662,0.209,1.323,0.401,1.991,0.583c-0.012,0.055-0.027,0.108-0.043,0.16
				c-0.202-0.049-0.347-0.07-0.441-0.06c-0.092,0.005-0.161,0.049-0.211,0.127C27.845,47.887,27.792,48.022,27.733,48.223z
				 M30.242,52.395c-0.102,0.027-0.213,0.027-0.336,0c-0.146-0.032-0.251-0.087-0.316-0.163c-0.07-0.075-0.102-0.179-0.106-0.309
				c-0.356,0.162-0.681,0.209-0.975,0.13c-0.208-0.049-0.361-0.141-0.457-0.266c-0.098-0.133-0.125-0.274-0.087-0.423
				c0.037-0.136,0.103-0.239,0.201-0.315c0.099-0.075,0.218-0.135,0.356-0.176c0.141-0.041,0.343-0.095,0.602-0.149
				c0.261-0.054,0.474-0.103,0.643-0.149c0.034-0.146,0.068-0.295,0.104-0.441c0.03-0.139,0.021-0.244-0.024-0.331
				c-0.047-0.082-0.137-0.142-0.267-0.168c-0.111-0.03-0.204-0.033-0.277-0.012c-0.072,0.027-0.114,0.055-0.126,0.104
				c-0.003,0.006,0.005,0.038,0.018,0.092c0.019,0.055,0.019,0.109,0.008,0.152c-0.021,0.081-0.076,0.146-0.17,0.198
				c-0.088,0.046-0.191,0.052-0.301,0.024c-0.107-0.024-0.186-0.076-0.235-0.142c-0.05-0.07-0.062-0.136-0.043-0.206
				c0.026-0.101,0.102-0.189,0.231-0.258c0.13-0.073,0.297-0.11,0.496-0.13c0.197-0.014,0.407,0.006,0.628,0.057
				c0.162,0.038,0.304,0.101,0.433,0.19c0.129,0.081,0.224,0.189,0.282,0.314c0.058,0.128,0.073,0.269,0.038,0.423
				c-0.109,0.499-0.221,0.998-0.33,1.5c-0.029,0.117-0.003,0.188,0.072,0.203c0.047,0.012,0.11-0.011,0.19-0.06
				c0.03,0.049,0.062,0.104,0.092,0.152C30.46,52.313,30.345,52.364,30.242,52.395z M33.363,50.911
				c-0.082,0.063-0.168,0.087-0.269,0.067c-0.046-0.005-0.091-0.021-0.143-0.049c-0.05-0.027-0.091-0.054-0.121-0.087
				c-0.019-0.021-0.039-0.04-0.057-0.064c-0.02-0.017-0.038-0.038-0.057-0.049c-0.015-0.014-0.035-0.022-0.056-0.027
				c-0.041-0.006-0.083,0-0.127,0.021c-0.043,0.021-0.096,0.055-0.157,0.098c-0.088,0.478-0.179,0.955-0.266,1.435
				c-0.019,0.106-0.018,0.18,0.007,0.23c0.024,0.049,0.068,0.087,0.133,0.108c0.064,0.022,0.182,0.052,0.346,0.082
				c-0.008,0.054-0.019,0.108-0.031,0.162c-0.587-0.103-1.174-0.217-1.763-0.339c0.015-0.057,0.024-0.105,0.037-0.165
				c0.028,0.011,0.059,0.017,0.088,0.021c0.252,0.055,0.397-0.017,0.435-0.2c0.087-0.439,0.174-0.888,0.265-1.332
				c0.043-0.226-0.078-0.41-0.359-0.556c0.011-0.038,0.016-0.071,0.023-0.104c0.358-0.032,0.716-0.065,1.069-0.105
				c0.054,0.008,0.103,0.019,0.154,0.029c-0.03,0.152-0.056,0.304-0.084,0.461c0.191-0.148,0.336-0.244,0.436-0.295
				c0.099-0.049,0.205-0.065,0.332-0.047c0.103,0.022,0.183,0.071,0.246,0.152c0.061,0.081,0.08,0.179,0.063,0.282
				C33.487,50.756,33.438,50.843,33.363,50.911z M36.516,53.062c0.063,0.044,0.167,0.07,0.323,0.087
				c-0.004,0.055-0.011,0.108-0.015,0.157c-0.399,0.03-0.799,0.049-1.198,0.065c0.014-0.114,0.029-0.233,0.041-0.35
				c-0.345,0.195-0.688,0.268-1.016,0.225c-0.183-0.027-0.348-0.084-0.498-0.176c-0.146-0.093-0.267-0.215-0.365-0.355
				c-0.089-0.145-0.159-0.304-0.188-0.478c-0.037-0.174-0.037-0.353-0.011-0.534c0.044-0.261,0.149-0.488,0.317-0.681
				c0.164-0.19,0.367-0.328,0.61-0.418c0.242-0.087,0.5-0.108,0.774-0.076c0.195,0.027,0.411,0.098,0.648,0.212
				c0.031-0.244,0.061-0.488,0.089-0.732c0.021-0.168,0.014-0.293-0.019-0.372c-0.035-0.084-0.128-0.165-0.287-0.249
				c0.004-0.041,0.008-0.084,0.016-0.122c0.328-0.065,0.656-0.13,0.984-0.195c0.041,0.003,0.083,0.011,0.125,0.014
				c-0.134,1.25-0.266,2.501-0.399,3.751C36.436,52.942,36.458,53.019,36.516,53.062z M42.275,53.702
				c-0.141,0-0.278-0.033-0.4-0.087c-0.125-0.06-0.249-0.142-0.361-0.25c-0.117-0.108-0.244-0.249-0.385-0.423
				c-0.149-0.185-0.295-0.369-0.442-0.554c-0.204-0.26-0.352-0.439-0.448-0.542c-0.099-0.104-0.187-0.154-0.264-0.157
				c-0.117-0.006-0.237-0.011-0.354-0.02c-0.022,0.426-0.045,0.854-0.066,1.28c-0.004,0.128,0.006,0.23,0.038,0.307
				c0.031,0.07,0.107,0.13,0.227,0.168c0.063,0.017,0.138,0.035,0.233,0.049c0.091,0.011,0.161,0.022,0.208,0.022
				c-0.003,0.051-0.004,0.108-0.007,0.162c-0.771-0.027-1.534-0.073-2.306-0.136c0.005-0.054,0.01-0.108,0.014-0.165
				c0.216,0.014,0.377,0.008,0.481-0.008c0.106-0.022,0.18-0.068,0.224-0.133c0.042-0.071,0.069-0.177,0.079-0.329
				c0.063-0.943,0.125-1.882,0.186-2.82c0.012-0.163,0.001-0.282-0.021-0.363c-0.025-0.082-0.086-0.142-0.183-0.179
				c-0.089-0.038-0.244-0.071-0.456-0.093c0.007-0.057,0.008-0.108,0.012-0.165c0.81,0.063,1.619,0.108,2.429,0.138
				c0.307,0.006,0.573,0.065,0.799,0.174c0.228,0.108,0.4,0.25,0.518,0.418c0.113,0.179,0.171,0.363,0.17,0.563
				c0,0.131-0.026,0.258-0.083,0.38c-0.057,0.125-0.137,0.239-0.24,0.337c-0.105,0.098-0.231,0.185-0.384,0.255
				c-0.147,0.067-0.323,0.113-0.519,0.141c0.142,0.142,0.321,0.342,0.537,0.603c0.103,0.119,0.208,0.238,0.316,0.357
				c0.016,0.022,0.037,0.044,0.065,0.068c0.026,0.029,0.058,0.063,0.098,0.105c0.107,0.122,0.194,0.215,0.266,0.288
				c0.071,0.081,0.146,0.146,0.219,0.208c0.067,0.058,0.141,0.108,0.208,0.145c0.066,0.037,0.144,0.07,0.22,0.086
				c0,0.055,0,0.114,0,0.169C42.694,53.702,42.486,53.702,42.275,53.702z M45.649,53.623c-0.09,0.057-0.198,0.087-0.323,0.095
				c-0.146,0.006-0.263-0.016-0.346-0.07c-0.087-0.06-0.147-0.149-0.186-0.271c-0.296,0.25-0.596,0.383-0.896,0.389
				c-0.212,0.008-0.384-0.041-0.509-0.142c-0.13-0.101-0.192-0.225-0.192-0.38c-0.004-0.138,0.035-0.258,0.107-0.36
				c0.075-0.095,0.169-0.185,0.292-0.261c0.126-0.081,0.303-0.179,0.536-0.304c0.235-0.125,0.426-0.228,0.579-0.314
				c-0.011-0.157-0.016-0.31-0.021-0.461c-0.009-0.136-0.042-0.239-0.111-0.304c-0.066-0.07-0.17-0.104-0.3-0.098
				c-0.115,0.003-0.206,0.027-0.269,0.064c-0.062,0.044-0.093,0.087-0.093,0.134c0,0.008,0.015,0.04,0.046,0.086
				c0.028,0.052,0.043,0.096,0.043,0.142c0.003,0.084-0.031,0.165-0.108,0.236c-0.072,0.067-0.167,0.103-0.282,0.108
				c-0.11,0-0.195-0.024-0.263-0.079c-0.065-0.052-0.099-0.111-0.099-0.182c0-0.104,0.054-0.212,0.158-0.312
				c0.108-0.101,0.25-0.193,0.439-0.258c0.184-0.065,0.388-0.104,0.617-0.114c0.165-0.005,0.317,0.014,0.464,0.06
				c0.146,0.049,0.265,0.13,0.354,0.233c0.092,0.108,0.141,0.238,0.149,0.396c0.027,0.512,0.053,1.022,0.083,1.535
				c0.007,0.124,0.046,0.184,0.127,0.179c0.044-0.003,0.101-0.038,0.162-0.114c0.043,0.044,0.085,0.087,0.129,0.128
				C45.838,53.49,45.74,53.569,45.649,53.623z M48.24,53.409c-0.008-0.055-0.011-0.111-0.016-0.168
				c0.141-0.014,0.241-0.044,0.301-0.093c0.065-0.049,0.087-0.136,0.07-0.271c-0.051-0.482-0.105-0.971-0.16-1.453
				c-0.008-0.106-0.035-0.19-0.078-0.261c-0.046-0.07-0.104-0.119-0.174-0.151c-0.076-0.033-0.157-0.044-0.255-0.033
				c-0.119,0.011-0.233,0.055-0.345,0.125c-0.108,0.07-0.23,0.168-0.36,0.304c0.046,0.529,0.092,1.061,0.139,1.59
				c0.011,0.092,0.032,0.162,0.067,0.206c0.038,0.043,0.087,0.07,0.144,0.078c0.055,0.006,0.139,0.008,0.247,0
				c0.006,0.057,0.006,0.111,0.011,0.166c-0.533,0.051-1.068,0.092-1.601,0.133c-0.004-0.058-0.008-0.111-0.015-0.169
				c0.136-0.008,0.239-0.029,0.31-0.073c0.071-0.037,0.102-0.113,0.092-0.232c-0.032-0.45-0.064-0.89-0.101-1.34
				c-0.008-0.131-0.046-0.236-0.116-0.315c-0.07-0.075-0.178-0.13-0.323-0.162c-0.001-0.033-0.004-0.065-0.008-0.104
				c0.331-0.119,0.659-0.244,0.983-0.374c0.038-0.006,0.078-0.008,0.118-0.011c0.012,0.136,0.022,0.269,0.035,0.401
				c0.168-0.146,0.321-0.261,0.468-0.342s0.32-0.136,0.526-0.157c0.594-0.065,0.928,0.176,0.998,0.74
				c0.057,0.458,0.114,0.914,0.171,1.37c0.014,0.13,0.057,0.209,0.13,0.233c0.073,0.026,0.177,0.029,0.317,0.011
				c0.006,0.06,0.011,0.108,0.021,0.168C49.304,53.295,48.772,53.354,48.24,53.409z M52.426,52.91
				c-0.021-0.114-0.043-0.233-0.063-0.351c-0.276,0.291-0.58,0.459-0.908,0.513c-0.182,0.027-0.358,0.02-0.526-0.026
				c-0.168-0.044-0.32-0.125-0.45-0.236c-0.133-0.111-0.239-0.241-0.323-0.398c-0.078-0.157-0.138-0.326-0.16-0.511
				c-0.037-0.26,0-0.51,0.104-0.74c0.104-0.233,0.252-0.426,0.461-0.577c0.206-0.152,0.445-0.253,0.716-0.296
				c0.201-0.032,0.429-0.03,0.687,0.014c-0.041-0.244-0.084-0.488-0.127-0.732c-0.027-0.163-0.071-0.276-0.125-0.348
				c-0.055-0.07-0.174-0.119-0.351-0.157c-0.005-0.038-0.013-0.081-0.019-0.119c0.299-0.157,0.592-0.314,0.884-0.472
				c0.041-0.011,0.085-0.02,0.128-0.027c0.236,1.239,0.47,2.474,0.708,3.711c0.017,0.103,0.065,0.171,0.133,0.195
				c0.07,0.024,0.179,0.021,0.334-0.006c0.008,0.049,0.021,0.104,0.026,0.154C53.18,52.642,52.806,52.779,52.426,52.91z
				 M56.32,51.668c-0.103,0.157-0.235,0.287-0.393,0.396c-0.16,0.108-0.345,0.185-0.546,0.233c-0.273,0.065-0.537,0.065-0.783,0
				c-0.25-0.063-0.461-0.185-0.638-0.36c-0.174-0.177-0.285-0.399-0.336-0.665c-0.055-0.252-0.038-0.493,0.049-0.732
				c0.081-0.238,0.22-0.434,0.409-0.602c0.195-0.169,0.421-0.282,0.687-0.342c0.255-0.06,0.502-0.06,0.745,0.002
				c0.239,0.068,0.448,0.183,0.622,0.355c0.176,0.174,0.298,0.38,0.36,0.63c0.052,0.189,0.063,0.377,0.029,0.563
				C56.491,51.337,56.424,51.505,56.32,51.668z M61.116,50.572c-0.017-0.055-0.035-0.109-0.052-0.16
				c0.024-0.011,0.049-0.02,0.073-0.024c0.122-0.044,0.201-0.096,0.236-0.157c0.035-0.063,0.035-0.152-0.003-0.261
				c-0.146-0.412-0.293-0.819-0.437-1.231c-0.07-0.195-0.155-0.339-0.25-0.426c-0.101-0.09-0.23-0.105-0.391-0.052
				c-0.225,0.082-0.431,0.279-0.626,0.603c0.168,0.499,0.328,0.987,0.488,1.48c0.035,0.104,0.075,0.18,0.136,0.223
				c0.054,0.046,0.124,0.057,0.211,0.03c0.032-0.014,0.063-0.02,0.084-0.024c0.024-0.012,0.052-0.017,0.079-0.022
				c0.019,0.049,0.038,0.104,0.054,0.157c-0.513,0.171-1.025,0.337-1.543,0.494c-0.017-0.055-0.032-0.104-0.049-0.157
				c0.171-0.049,0.274-0.104,0.312-0.168c0.033-0.071,0.033-0.163-0.008-0.293c-0.133-0.424-0.269-0.847-0.398-1.27
				c-0.119-0.386-0.323-0.529-0.607-0.445c-0.104,0.033-0.218,0.104-0.337,0.215c-0.122,0.108-0.222,0.23-0.298,0.363
				c0.151,0.518,0.304,1.036,0.45,1.554c0.035,0.114,0.092,0.18,0.168,0.195c0.079,0.02,0.188,0.006,0.331-0.038
				c0.016,0.055,0.032,0.109,0.049,0.163c-0.532,0.157-1.061,0.304-1.593,0.45c-0.013-0.054-0.029-0.108-0.04-0.162
				c0.011-0.006,0.024-0.009,0.038-0.012c0.108-0.029,0.185-0.064,0.235-0.098c0.052-0.037,0.079-0.081,0.084-0.135
				c0.003-0.055-0.008-0.125-0.029-0.207c-0.108-0.396-0.22-0.794-0.328-1.193c-0.038-0.141-0.093-0.235-0.163-0.293
				c-0.064-0.06-0.189-0.098-0.369-0.113c-0.008-0.032-0.016-0.065-0.026-0.101c0.309-0.188,0.618-0.377,0.922-0.578
				c0.032-0.011,0.065-0.019,0.101-0.026c0.04,0.13,0.078,0.266,0.116,0.396c0.125-0.176,0.266-0.325,0.415-0.444
				c0.152-0.119,0.307-0.206,0.475-0.255c0.108-0.033,0.22-0.049,0.337-0.049c0.113,0,0.228,0.016,0.33,0.049
				c0.104,0.038,0.19,0.095,0.267,0.171c0.13-0.198,0.271-0.361,0.412-0.491c0.151-0.13,0.32-0.228,0.502-0.293
				c0.173-0.06,0.333-0.081,0.482-0.07s0.279,0.064,0.394,0.165c0.119,0.098,0.206,0.23,0.273,0.41
				c0.157,0.431,0.317,0.862,0.475,1.291c0.027,0.07,0.06,0.119,0.098,0.146c0.038,0.032,0.087,0.046,0.152,0.04
				c0.07-0.003,0.149-0.024,0.255-0.063c0.019,0.055,0.038,0.104,0.06,0.155C62.146,50.206,61.637,50.393,61.116,50.572z"/>
			<path fill="#9A5E3F" d="M51.726,50.45c-0.105-0.03-0.208-0.036-0.309-0.02c-0.152,0.027-0.282,0.093-0.394,0.198
				s-0.192,0.252-0.236,0.439c-0.051,0.185-0.054,0.409-0.013,0.664c0.035,0.223,0.095,0.407,0.187,0.559
				c0.09,0.146,0.206,0.255,0.339,0.32c0.139,0.065,0.285,0.081,0.438,0.055c0.228-0.035,0.423-0.146,0.588-0.32
				c-0.103-0.58-0.206-1.166-0.309-1.747C51.927,50.528,51.835,50.479,51.726,50.45z"/>
		</g>
	</g>
</g>
</svg>
